<svg width="14" height="26" viewBox="0 0 14 26" fill="none" xmlns="http://www.w3.org/2000/svg">
<path d="M6.64583 25.0832C4.79306 25.0832 3.22222 24.4387 1.93333 23.1498C0.644444 21.8609 0 20.2901 0 18.4373V5.74984C0 4.42067 0.473264 3.28282 1.41979 2.3363C2.36632 1.38977 3.50417 0.916504 4.83333 0.916504C6.1625 0.916504 7.30035 1.38977 8.24687 2.3363C9.1934 3.28282 9.66667 4.42067 9.66667 5.74984V17.229C9.66667 18.0748 9.37465 18.7898 8.79062 19.3738C8.2066 19.9578 7.49167 20.2498 6.64583 20.2498C5.8 20.2498 5.08507 19.9578 4.50104 19.3738C3.91701 18.7898 3.625 18.0748 3.625 17.229V5.74984H5.4375V17.229C5.4375 17.5714 5.5535 17.8581 5.7855 18.0893C6.01669 18.3213 6.30347 18.4373 6.64583 18.4373C6.98819 18.4373 7.27537 18.3213 7.50737 18.0893C7.73857 17.8581 7.85417 17.5714 7.85417 17.229V5.74984C7.85417 4.904 7.56215 4.18907 6.97812 3.60505C6.3941 3.02102 5.67917 2.729 4.83333 2.729C3.9875 2.729 3.27257 3.02102 2.68854 3.60505C2.10451 4.18907 1.8125 4.904 1.8125 5.74984V18.4373C1.8125 19.7665 2.28576 20.9044 3.23229 21.8509C4.17882 22.7974 5.31667 23.2707 6.64583 23.2707C7.975 23.2707 9.11285 22.7974 10.0594 21.8509C11.0059 20.9044 11.4792 19.7665 11.4792 18.4373V5.74984H13.2917V18.4373C13.2917 20.2901 12.6472 21.8609 11.3583 23.1498C10.0694 24.4387 8.49861 25.0832 6.64583 25.0832Z" fill="#2AA96D"/>
</svg>
